<?xml version="1.0" encoding="utf-8"?>
<!-- Generator: Adobe Illustrator 23.0.3, SVG Export Plug-In . SVG Version: 6.00 Build 0)  -->
<svg version="1.1" id="Layer_1" xmlns="http://www.w3.org/2000/svg" xmlns:xlink="http://www.w3.org/1999/xlink" x="0px" y="0px"
	 viewBox="0 0 16 16" style="enable-background:new 0 0 16 16;" xml:space="preserve">
<style type="text/css">
	.st0{fill:#662D91;}
</style>
<circle class="st0" cx="8" cy="8" r="8"/>
<g>
	<path d="M4.9,5.4c0.4-0.1,0.9-0.1,1.3-0.1c0.7,0,1.2,0.1,1.6,0.4c0.3,0.2,0.4,0.6,0.4,1c0,0.7-0.4,1.2-1,1.4v0
		C7.7,8.2,7.9,8.6,8,9.2c0.2,0.8,0.3,1.3,0.4,1.5H7.7c-0.1-0.2-0.2-0.6-0.4-1.3c-0.2-0.7-0.4-1-1.1-1H5.6v2.3H4.9V5.4z M5.6,7.8h0.7
		c0.7,0,1.2-0.4,1.2-1c0-0.7-0.5-1-1.2-1c-0.3,0-0.6,0-0.7,0.1V7.8z"/>
	<path d="M10.4,5.3h0.7v3.6c0,1.4-0.7,1.9-1.6,1.9c-0.3,0-0.6-0.1-0.7-0.1l0.1-0.6c0.1,0.1,0.4,0.1,0.6,0.1c0.6,0,1-0.3,1-1.3V5.3z"
		/>
</g>
</svg>
